/* XPM */
static char * tile003_xpm[] = {
"68 70 5 1",
" 	c #7B8C99",
".	c #298356",
"+	c #285145",
"@	c #53BC34",
"#	c #FFFFFF",
"                                                                    ",
"                                                                    ",
"  ..++....@@++@@@@..++....++..@@@@..++....@@++@@@@..++....++..@@@@  ",
"  ..++....@@++@@@@..++....++..@@@@..++....@@++@@@@..++....++..@@@@  ",
"  ++..@@....++@@++..@@++@@..++@@@@++..@@....++@@++..@@++@@..++@@@@  ",
"  ++..@@....++@@++..@@++@@..++@@@@++..@@....++@@++..@@++@@..++@@@@  ",
"  ++@@@@++......++@@@@++@@@@....@@++@@@@++......++@@@@++@@@@....@@  ",
"  ++@@@@++......++@@@@++@@@@....@@++@@@@++......++@@@@++@@@@....@@  ",
"  ..@@@@++@@..++++@@@@..@@@@..++....@@@@++@@..++++@@@@..@@@@..++..  ",
"  ..@@@@++@@..++++@@@@..@@@@..++....@@@@++@@..++++@@@@..@@@@..++..  ",
"  ....@@++@@@@++..@@......@@@@++......@@++@@@@++..@@......@@@@++..  ",
"  ....@@++@@@@++..@@......@@@@++......@@++@@@@++..@@......@@@@++..  ",
"  ++......@@@@........@@........@@++......@@@@........@@........@@  ",
"  ++......@@@@........@@........@@++......@@@@........@@........@@  ",
"  ++@@@@....@@....++@@@@..++@@@@@@++@@@@....@@....++@@@@..++@@@@@@  ",
"  ++@@@@....@@....++@@@@..++@@@@@@++@@@@....@@....++@@@@..++@@@@@@  ",
"  ..@@@@++++....@@++@@@@++++@@@@....@@@@++++....@@++@@@@++++@@@@..  ",
"  ..@@@@++++....@@++@@@@++++@@@@....@@@@++++....@@++@@@@++++@@@@..  ",
"  ....@@++....@@@@..@@..++....++......@@++....@@@@..@@..++....++..  ",
"  ....@@++....@@@@..@@..++....++......@@++....@@@@..@@..++....++..  ",
"  @@++....@@..@@@@++....@@@@++..@@@@++....@@..@@@@++....@@@@++..@@  ",
"  @@++....@@..@@@@++....@@@@++..@@@@++....@@..@@@@++....@@@@++..@@  ",
"  @@++++@@@@++@@....@@..@@@@..++@@@@++++@@@@++@@....@@..@@@@..++@@  ",
"  @@++++@@@@++@@....@@..@@@@..++@@@@++++@@@@++@@....@@..@@@@..++@@  ",
"  @@..++@@@@++..++@@@@++@@..++....@@..++@@@@++..++@@@@++@@..++....  ",
"  @@..++@@@@++..++@@@@++@@..++....@@..++@@@@++..++@@@@++@@..++....  ",
"  ......@@..++++++@@@@++....@@@@........@@..++++++@@@@++....@@@@..  ",
"  ......@@..++++++@@@@++....@@@@........@@..++++++@@@@++....@@@@..  ",
"  ..@@++....++..++@@....@@++@@@@++..@@++....++..++@@....@@++@@@@++  ",
"  ..@@++....++..++@@....@@++@@@@++..@@++....++..++@@....@@++@@@@++  ",
"  @@@@++@@@@++@@....++@@@@++@@..++@@@@++@@@@++@@....++@@@@++@@..++  ",
"  @@@@++@@@@++@@....++@@@@++@@..++@@@@++@@@@++@@....++@@@@++@@..++  ",
"  @@@@++@@@@..@@@@++..@@@@....@@..@@@@++@@@@..@@@@++..@@@@....@@..  ",
"  @@@@++@@@@..@@@@++..@@@@....@@..@@@@++@@@@..@@@@++..@@@@....@@..  ",
"  ..++....@@++@@@@..++....++..@@@@..++....@@++@@@@..++....++..@@@@  ",
"  ..++....@@++@@@@..++....++..@@@@..++....@@++@@@@..++....++..@@@@  ",
"  ++..@@....++@@++..@@++@@..++@@@@++..@@....++@@++..@@++@@..++@@@@  ",
"  ++..@@....++@@++..@@++@@..++@@@@++..@@....++@@++..@@++@@..++@@@@  ",
"  ++@@@@++......++@@@@++@@@@....@@++@@@@++......++@@@@++@@@@....@@  ",
"  ++@@@@++......++@@@@++@@@@....@@++@@@@++......++@@@@++@@@@....@@  ",
"  ..@@@@++@@..++++@@@@..@@@@..++....@@@@++@@..++++@@@@..@@@@..++..  ",
"  ..@@@@++@@..++++@@@@..@@@@..++....@@@@++@@..++++@@@@..@@@@..++..  ",
"  ....@@++@@@@++..@@......@@@@++......@@++@@@@++..@@......@@@@++..  ",
"  ....@@++@@@@++..@@......@@@@++......@@++@@@@++..@@......@@@@++..  ",
"  ++......@@@@........@@........@@++......@@@@........@@........@@  ",
"  ++......@@@@........@@........@@++......@@@@........@@........@@  ",
"  ++@@@@....@@....++@@@@..++@@@@@@++@@@@....@@....++@@@@..++@@@@@@  ",
"  ++@@@@....@@....++@@@@..++@@@@@@++@@@@....@@....++@@@@..++@@@@@@  ",
"  ..@@@@++++....@@++@@@@++++@@@@....@@@@++++....@@++@@@@++++@@@@..  ",
"  ..@@@@++++....@@++@@@@++++@@@@....@@@@++++....@@++@@@@++++@@@@..  ",
"  ....@@++....@@@@..@@..++....++......@@++....@@@@..@@..++....++..  ",
"  ....@@++....@@@@..@@..++....++......@@++....@@@@..@@..++....++..  ",
"  @@++....@@..@@@@++....@@@@++..@@@@++....@@..@@@@++....@@@@++..@@  ",
"  @@++....@@..@@@@++....@@@@++..@@@@++....@@..@@@@++....@@@@++..@@  ",
"  @@++++@@@@++@@....@@..@@@@..++@@@@++++@@@@++@@....@@..@@@@..++@@  ",
"  @@++++@@@@++@@....@@..@@@@..++@@@@++++@@@@++@@....@@..@@@@..++@@  ",
"  @@..++@@@@++..++@@@@++@@..++....@@..++@@@@++..++@@@@++@@..++....  ",
"  @@..++@@@@++..++@@@@++@@..++....@@..++@@@@++..++@@@@++@@..++....  ",
"  ......@@..++++++@@@@++....@@@@........@@..++++++@@@@++....@@@@..  ",
"  ......@@..++++++@@@@++....@@@@........@@..++++++@@@@++....@@@@..  ",
"  ..@@++....++..++@@....@@++@@@@++..@@++....++..++@@....@@++@@@@++  ",
"  ..@@++....++..++@@....@@++@@@@++..@@++....++..++@@....@@++@@@@++  ",
"  @@@@++@@@@++@@....++@@@@++@@..++@@@@++@@@@++@@....++@@@@++@@..++  ",
"  @@@@++@@@@++@@....++@@@@++@@..++@@@@++@@@@++@@....++@@@@++@@..++  ",
"  @@@@++@@@@..@@@@++..@@@@....@@..@@@@++@@@@..@@@@++..@@@@....@@..  ",
"  @@@@++@@@@..@@@@++..@@@@....@@..@@@@++@@@@..@@@@++..@@@@....@@..  ",
"                                                                    ",
"                                                                    ",
"                                                                    ",
"                                                                    "};
